<?xml version="1.0" standalone="no"?>
<!DOCTYPE svg PUBLIC "-//W3C//DTD SVG 20010904//EN"
 "http://www.w3.org/TR/2001/REC-SVG-20010904/DTD/svg10.dtd">
<svg version="1.0" xmlns="http://www.w3.org/2000/svg"
 width="64.000000pt" height="64.000000pt" viewBox="0 0 64.000000 64.000000"
 preserveAspectRatio="xMidYMid meet">

<g transform="translate(0.000000,64.000000) scale(0.100000,-0.100000)"
fill="#14b8a6" stroke="none">
<path d="M409 449 l-160 -152 29 -17 c16 -10 37 -29 48 -43 l19 -25 148 155
c103 109 147 162 147 179 0 23 -33 54 -58 54 -7 0 -85 -68 -173 -151z"/>
<path d="M154 241 c-17 -10 -41 -34 -52 -53 -12 -20 -39 -43 -61 -53 -47 -21
-45 -38 8 -65 53 -26 102 -33 149 -21 88 24 131 95 98 159 -28 55 -85 68 -142
33z"/>
</g>
</svg>
