<?xml version="1.0" standalone="no"?>
<!DOCTYPE svg PUBLIC "-//W3C//DTD SVG 20010904//EN"
 "http://www.w3.org/TR/2001/REC-SVG-20010904/DTD/svg10.dtd">
<svg version="1.0" xmlns="http://www.w3.org/2000/svg"
 width="500.000000pt" height="500.000000pt" viewBox="0 0 500.000000 500.000000"
 preserveAspectRatio="xMidYMid meet">

<g transform="translate(0.000000,500.000000) scale(0.100000,-0.100000)"
fill="#14b8a6" stroke="#ffffff" stroke-width="200">
<path d="M888 4409 c-173 -26 -292 -207 -244 -372 16 -54 26 -70 854 -1242
121 -171 136 -203 135 -295 0 -94 -13 -122 -153 -320 -193 -272 -357 -505
-580 -820 -122 -173 -232 -335 -244 -360 -15 -32 -21 -64 -20 -115 0 -84 27
-149 88 -210 60 -59 107 -79 202 -83 l82 -4 268 137 c148 76 314 161 369 190
55 29 188 97 295 153 107 55 409 210 670 344 261 135 718 370 1015 523 297
153 566 293 598 312 104 62 162 190 138 304 -16 75 -62 152 -113 187 -24 16
-221 120 -438 232 -503 259 -1540 792 -2237 1152 -567 292 -589 301 -685 287z"/>
</g>
</svg>
