<?xml version="1.0" standalone="no"?>
<!DOCTYPE svg PUBLIC "-//W3C//DTD SVG 20010904//EN"
 "http://www.w3.org/TR/2001/REC-SVG-20010904/DTD/svg10.dtd">
<svg version="1.0" xmlns="http://www.w3.org/2000/svg"
 width="512.000000pt" height="512.000000pt" viewBox="0 0 512.000000 512.000000"
 preserveAspectRatio="xMidYMid meet">

<g transform="translate(0.000000,512.000000) scale(0.100000,-0.100000)"
fill="#14b8a6" stroke="none">
<path d="M392 5106 c-184 -45 -343 -209 -381 -394 -8 -37 -11 -615 -11 -1935
0 -1651 2 -1890 15 -1942 58 -229 244 -385 479 -404 l78 -6 62 -135 c83 -182
90 -194 133 -229 52 -43 123 -65 187 -58 38 4 170 60 514 216 l462 211 998 -2
997 -3 5 -162 c6 -185 12 -200 91 -241 44 -23 46 -23 369 -19 306 3 329 4 384
25 168 62 300 213 335 380 8 38 11 600 11 1940 0 2073 3 1952 -60 2071 -61
114 -158 199 -278 245 l-57 21 -1765 5 -1765 5 -5 162 c-6 184 -12 200 -90
241 -43 21 -52 22 -350 21 -210 0 -321 -5 -358 -13z m628 -1906 l0 -1750 -282
0 c-305 0 -364 -7 -457 -54 -26 -14 -62 -37 -80 -51 l-31 -27 2 1688 3 1689
28 56 c45 92 135 165 232 189 17 5 155 8 308 9 l277 1 0 -1750z m3748 1281
c70 -38 120 -92 154 -167 30 -65 31 -177 4 -249 -27 -70 -111 -155 -189 -191
l-62 -29 -315 -5 c-295 -5 -317 -6 -350 -26 -19 -11 -45 -35 -57 -54 l-23 -33
0 -1563 0 -1564 -812 0 c-446 0 -809 2 -807 4 2 1 191 88 419 192 l415 189
250 253 c244 248 284 297 285 354 0 39 -37 129 -67 160 -57 60 -70 61 -465 34
l-357 -25 -1063 -484 c-987 -449 -1067 -487 -1115 -533 -39 -37 -55 -61 -65
-98 l-13 -48 -52 5 c-116 12 -224 91 -278 203 -24 49 -29 72 -29 139 -1 68 3
89 27 136 32 67 109 142 175 172 44 21 65 22 372 27 305 5 327 6 360 26 19 11
45 35 57 54 l23 33 0 1564 0 1563 1758 -2 1757 -3 63 -34z m161 -4075 c-18
-60 -30 -78 -83 -132 -53 -52 -73 -65 -130 -83 -62 -19 -92 -21 -342 -21
l-274 0 0 1750 0 1750 273 0 c207 0 287 4 336 15 70 17 189 75 218 107 17 19
18 -30 21 -1648 2 -1669 2 -1669 -19 -1738z m-1433 1208 c6 -24 -12 -44 -182
-215 -104 -104 -191 -185 -194 -181 -17 20 -172 373 -167 378 3 3 102 12 219
20 195 12 272 18 305 22 7 1 16 -10 19 -24z m-688 -126 c17 -40 29 -75 25 -79
-5 -4 -131 -64 -281 -132 -151 -69 -280 -134 -288 -144 -37 -49 3 -133 64
-133 16 0 151 56 302 125 150 69 276 125 280 125 12 0 71 -143 62 -152 -8 -8
-1507 -694 -1530 -700 -10 -2 -86 141 -79 148 1 1 142 66 312 143 196 89 318
151 333 167 45 51 10 134 -56 134 -22 0 -600 -253 -653 -286 -8 -5 -83 146
-75 153 7 7 1531 701 1541 702 6 1 25 -31 43 -71z m-1638 -934 c59 -130 98
-230 93 -235 -18 -18 -316 -149 -339 -149 -41 0 -66 37 -147 217 -82 180 -86
202 -46 239 19 17 305 152 325 153 6 1 57 -101 114 -225z"/>
<path d="M382 4683 c-29 -12 -42 -62 -42 -167 0 -95 2 -107 23 -130 34 -40 77
-43 115 -11 l32 27 0 119 c0 114 -1 121 -25 144 -23 24 -69 32 -103 18z"/>
<path d="M369 4151 l-29 -30 2 -970 3 -970 22 -23 c33 -33 89 -30 119 6 l24
27 0 970 0 970 -25 24 c-34 35 -78 33 -116 -4z"/>
<path d="M2024 4044 c-93 -53 -181 -108 -196 -122 -15 -14 -35 -45 -45 -70
-21 -56 -11 -98 47 -198 l41 -71 -48 -86 -48 -85 -110 -3 c-97 -4 -114 -7
-144 -28 -62 -45 -71 -80 -71 -308 0 -214 4 -240 48 -287 42 -44 81 -56 187
-56 93 0 96 -1 105 -25 5 -14 26 -50 45 -80 19 -31 35 -58 35 -61 0 -3 -20
-40 -44 -82 -53 -92 -61 -126 -46 -183 16 -60 52 -90 232 -192 176 -100 210
-113 267 -97 57 15 87 43 137 131 l46 79 98 0 98 0 46 -79 c25 -44 57 -89 72
-100 39 -31 97 -44 141 -32 53 15 370 199 393 228 27 34 43 97 35 136 -4 18
-27 68 -52 111 -44 77 -45 80 -29 105 9 14 30 52 46 84 l30 57 95 0 c106 0
145 12 187 56 44 47 48 73 48 286 0 184 -2 205 -21 245 -35 73 -66 87 -195 91
l-111 4 -17 36 c-10 20 -31 58 -48 84 l-30 48 45 78 c56 97 65 138 43 196 -23
61 -50 82 -240 190 -131 74 -179 96 -207 96 -81 0 -128 -36 -192 -147 l-41
-73 -96 0 -96 0 -41 73 c-64 111 -111 147 -192 147 -29 0 -76 -22 -207 -96z
m275 -179 c34 -57 66 -107 73 -111 6 -4 91 -7 188 -7 97 0 182 3 188 7 7 4 39
54 73 112 l61 104 52 -30 c28 -16 93 -54 143 -82 51 -29 93 -57 93 -61 0 -5
-25 -53 -55 -106 -30 -54 -55 -108 -55 -121 0 -13 19 -51 43 -84 23 -33 60
-97 82 -141 25 -51 49 -84 65 -92 15 -8 68 -13 138 -13 l112 0 0 -170 0 -170
-121 0 c-66 0 -129 -5 -139 -10 -11 -6 -35 -45 -55 -86 -19 -42 -55 -104 -80
-139 -28 -40 -45 -74 -45 -92 0 -16 24 -69 55 -122 31 -52 54 -99 51 -105 -6
-17 -275 -168 -285 -161 -5 3 -33 45 -60 94 -28 49 -58 95 -67 102 -23 19
-350 22 -381 3 -11 -7 -44 -54 -73 -103 -28 -50 -56 -93 -61 -96 -11 -7 -279
144 -286 161 -2 6 21 54 51 106 60 101 66 128 38 169 -9 15 -30 46 -46 70 -16
24 -45 77 -63 116 -18 40 -42 77 -53 83 -10 5 -73 10 -139 10 l-121 0 0 170 0
170 113 0 c68 0 122 5 137 13 16 8 40 41 65 92 22 44 59 107 83 139 23 33 42
71 42 84 0 14 -25 69 -55 123 -30 53 -55 101 -55 106 1 6 273 170 287 173 0 0
29 -47 62 -105z"/>
<path d="M2450 3395 c-96 -31 -193 -136 -221 -240 -17 -60 -6 -163 23 -226 31
-67 96 -132 168 -167 47 -23 68 -27 140 -27 73 0 93 4 142 28 72 35 134 97
167 167 22 46 26 69 26 145 0 85 -2 94 -36 155 -82 148 -248 215 -409 165z
m190 -174 c97 -51 118 -179 43 -262 -131 -145 -362 16 -273 191 18 36 55 70
90 83 33 12 107 6 140 -12z"/>
</g>
</svg>
